<?xml version="1.0" encoding="utf-8"?>
<!-- Generator: Adobe Illustrator 19.2.1, SVG Export Plug-In . SVG Version: 6.00 Build 0)  -->
<svg version="1.1" id="layer" xmlns="http://www.w3.org/2000/svg" xmlns:xlink="http://www.w3.org/1999/xlink" x="0px" y="0px"
	 viewBox="0 0 652 652" style="enable-background:new 0 0 652 652;" xml:space="preserve">
<style type="text/css">
	.st0{fill:#472A2B;}
	.st1{fill:#EF3E42;}
	.st2{fill:#FFFFFF;}
	.st3{fill:#00A4E4;}
</style>
<g>
	<g>
		<path class="st0" d="M354.2,347.6h-17.8v-35.2h17.8c9.8,0,17.8,7.9,17.8,17.8C371.9,340.1,363.6,347.6,354.2,347.6 M354.2,282.1
			h-49V378h49c26.4,0,47.8-21.2,47.8-48.1C401.9,303.4,380.6,282.1,354.2,282.1"/>
		<path class="st0" d="M509.9,329.4c-0.4-26.4-21.7-47.3-47.8-47.3h-47.8V378h31.2v-64.7h16.6c9.5,0,16.9,7.4,16.9,16.9v48.1h31.2
			L509.9,329.4L509.9,329.4z"/>
		<path class="st0" d="M620.5,329.4c-0.4-26.4-21.7-47.3-47.8-47.3h-48.1V378h31.2v-64.7h16.9c9.1,0,16.9,7.4,16.9,16.9v48.1h31.2
			L620.5,329.4L620.5,329.4z"/>
	</g>
	<g>
		<path class="st1" d="M178.7,282.1V210c-12.2-4.4-25.7-6.7-39.5-6.7H20.9v157.8h78.9v-79H178.7z"/>
		<path class="st2" d="M178.7,282.1h-79V361h39.5c21.7,0,39.5-17.8,39.5-39.5l0,0V282.1L178.7,282.1z"/>
		<path class="st0" d="M178.7,210v72.1h72.1C238.6,248.6,212.2,221.7,178.7,210z M20.9,439.9h78.9v-78.9H20.9V439.9z"/>
		<path class="st3" d="M250.8,282.1h-72.1v39.5l0,0c0,21.7-17.8,39.5-39.5,39.5H99.7v78.9h39.5c65.5,0,118.3-52.8,118.3-118.3
			C257.5,307.8,255.1,294.4,250.8,282.1z"/>
	</g>
</g>
</svg>
